<svg width="512" height="512" viewBox="0 0 512 512" fill="none" xmlns="http://www.w3.org/2000/svg"><g clip-path="url(#clip0_5948_5519)"><rect width="512" height="512" fill="#C5E6F0"/><path d="M374.881 331.164C392.473 303.718 399.87 270.958 395.78 238.607C391.69 206.256 376.37 176.372 352.501 154.179C328.632 131.985 297.73 118.893 265.195 117.19C232.661 115.487 200.563 125.282 174.511 144.862C148.46 164.443 130.111 192.564 122.671 224.311C115.232 256.059 119.175 289.414 133.811 318.547C148.448 347.68 172.847 370.738 202.745 383.692C232.643 396.647 266.138 398.672 297.377 389.416C285.563 407.865 278.262 428.844 276.067 450.65C273.872 472.453 276.844 494.468 284.744 514.907C292.644 535.345 305.248 553.628 321.532 568.278C337.816 582.925 357.323 593.524 378.468 599.212L450.521 330.17C425.703 323.47 399.514 323.814 374.881 331.164Z" fill="white"/><circle cx="416.349" cy="467.599" r="141.65" fill="white"/></g><defs><clipPath id="clip0_5948_5519"><rect width="512" height="512" fill="white"/></clipPath></defs></svg>